<svg width="270" height="103" viewBox="0 0 270 103" fill="none" xmlns="http://www.w3.org/2000/svg">
<path d="M81.023 28.931L74.5862 48.977C74.4023 49.6513 74.0498 50.1571 73.5287 50.4943C73.0077 50.8314 72.4713 51 71.9195 51C71.3678 51 70.8621 50.8467 70.4023 50.5402C69.9425 50.2031 69.6207 49.682 69.4368 48.977L63.7356 27.8276C63.613 27.5211 63.613 27.2299 63.7356 26.954C63.8889 26.6782 64.0575 26.4636 64.2414 26.3103C64.6092 26.0345 64.977 25.8966 65.3448 25.8966C66.0805 25.8966 66.5249 26.2337 66.6782 26.908L72.1034 48.3333L78.8161 27.7356C79 27.1533 79.2912 26.7088 79.6897 26.4023C80.0881 26.0651 80.5479 25.8966 81.069 25.8966C81.5287 25.8966 81.9579 26.0651 82.3563 26.4023C82.7854 26.7088 83.1073 27.1533 83.3218 27.7356L90.2184 48.3333L95.6897 27C95.8736 26.2644 96.318 25.8966 97.023 25.8966C97.6054 25.8966 98.0805 26.1724 98.4483 26.7241C98.5402 26.908 98.5556 27.046 98.4943 27.1379C98.4943 27.3525 98.4789 27.5364 98.4483 27.6897L92.6552 48.977C92.4406 49.9579 91.8889 50.5862 91 50.8621C90.7854 50.954 90.4483 51 89.9885 51C89.5594 51 89.0996 50.8467 88.6092 50.5402C88.1494 50.2031 87.7969 49.682 87.5517 48.977L81.023 28.931ZM113.859 39.6897C113.859 38.2797 113.461 37.1762 112.664 36.3793C111.959 35.705 111.131 35.3678 110.181 35.3678C109.262 35.3678 108.48 35.4751 107.836 35.6897C107.193 35.9042 106.626 36.2567 106.135 36.7471C105.093 37.728 104.572 39.1226 104.572 40.931V49.7126C104.572 50.1418 104.419 50.4636 104.112 50.6782C103.806 50.8927 103.468 51 103.101 51C102.733 51 102.426 50.8927 102.181 50.6782C101.936 50.433 101.813 50.1111 101.813 49.7126V27.2759C101.813 26.8467 101.967 26.5249 102.273 26.3103C102.58 26.0958 102.886 25.9885 103.193 25.9885C103.56 25.9885 103.882 26.0958 104.158 26.3103C104.434 26.4943 104.572 26.8161 104.572 27.2759V36.5172C105.001 35.4444 105.798 34.6169 106.963 34.0345C108.036 33.4828 109.093 33.2069 110.135 33.2069C111.208 33.2069 112.112 33.3448 112.848 33.6207C113.583 33.8659 114.258 34.2337 114.871 34.7241C116.097 35.8889 116.71 37.6054 116.71 39.8736V49.7126C116.71 50.1418 116.541 50.4636 116.204 50.6782C115.898 50.8927 115.576 51 115.239 51C114.871 51 114.549 50.8927 114.273 50.6782C113.997 50.433 113.859 50.1111 113.859 49.7126V39.6897ZM125.397 27.4598C125.397 27.9502 125.229 28.3487 124.891 28.6552C124.554 28.9617 124.079 29.1149 123.466 29.1149C122.853 29.1149 122.378 28.9617 122.041 28.6552C121.704 28.3487 121.535 27.9502 121.535 27.4598C121.535 27.0307 121.704 26.6628 122.041 26.3563C122.378 26.0498 122.853 25.8966 123.466 25.8966C124.11 25.8966 124.585 26.0498 124.891 26.3563C125.229 26.6628 125.397 27.0307 125.397 27.4598ZM122.087 35C122.087 34.5402 122.24 34.1877 122.547 33.9425C122.853 33.6667 123.129 33.5287 123.374 33.5287C123.619 33.5287 123.819 33.5747 123.972 33.6667C124.125 33.728 124.278 33.8352 124.432 33.9885C124.769 34.2031 124.937 34.5402 124.937 35V49.6207C124.937 50.0805 124.784 50.433 124.478 50.6782C124.171 50.8927 123.834 51 123.466 51C123.098 51 122.776 50.8927 122.501 50.6782C122.225 50.433 122.087 50.0805 122.087 49.6207V35ZM136.529 35.3678C133.862 35.3678 132.56 36.2107 132.621 37.8966C132.621 38.9693 133.387 39.705 134.92 40.1034C135.441 40.2567 135.993 40.3946 136.575 40.5172C137.188 40.6398 137.847 40.7931 138.552 40.977C139.257 41.1303 139.977 41.3448 140.713 41.6207C141.755 41.9272 142.552 42.4483 143.104 43.1839C143.686 43.8889 143.977 44.7471 143.977 45.7586C143.977 47.5977 143.196 49.023 141.632 50.0345C140.222 50.954 138.445 51.3985 136.299 51.3678C134.705 51.3678 133.142 51.092 131.609 50.5402C130.996 50.295 130.506 50.0038 130.138 49.6667C129.77 49.3295 129.586 49.0077 129.586 48.7011C129.586 48.3946 129.678 48.1494 129.862 47.9655C130.077 47.7816 130.322 47.6897 130.598 47.6897C130.874 47.6897 131.18 47.7663 131.517 47.9195C131.885 48.0728 132.345 48.2414 132.897 48.4253C134.307 48.9464 135.441 49.2069 136.299 49.2069C137.157 49.2069 137.847 49.1609 138.368 49.069C138.889 48.9464 139.364 48.7625 139.793 48.5172C140.713 47.9042 141.173 47.1073 141.173 46.1264C141.173 45.4215 140.943 44.8851 140.483 44.5172C140.054 44.1188 139.487 43.8123 138.782 43.5977C138.107 43.3831 137.433 43.1992 136.759 43.046C136.084 42.8927 135.41 42.7395 134.736 42.5862C134.061 42.433 133.418 42.249 132.805 42.0345C132.192 41.8199 131.671 41.5287 131.242 41.1609C130.199 40.4253 129.678 39.3831 129.678 38.0345C129.678 36.318 130.399 35.0766 131.839 34.3103C133.035 33.5747 134.613 33.2069 136.575 33.2069C138.567 33.2069 140.161 33.4981 141.357 34.0805C142.368 34.6015 142.874 35.1839 142.874 35.8276C142.874 36.0728 142.766 36.272 142.552 36.4253C142.368 36.5785 142.153 36.6552 141.908 36.6552C141.448 36.6552 141.096 36.5785 140.851 36.4253C140.636 36.272 140.391 36.1188 140.115 35.9655C139.839 35.8123 139.517 35.705 139.15 35.6437C138.475 35.4598 137.602 35.3678 136.529 35.3678ZM150.82 36.5172C152.015 34.3103 154.099 33.2069 157.072 33.2069C159.524 33.2069 161.394 34.1418 162.682 36.0115C163.846 37.728 164.429 39.8429 164.429 42.3563C164.429 44.931 163.816 47.0307 162.59 48.6552C161.272 50.4943 159.417 51.3985 157.026 51.3678C155.003 51.3678 153.348 50.7548 152.061 49.5287C151.601 49.1303 151.187 48.6552 150.82 48.1034V56.3793C150.82 56.8391 150.666 57.1762 150.36 57.3908C150.053 57.6054 149.747 57.7126 149.44 57.7126C149.072 57.7126 148.735 57.59 148.429 57.3448C148.122 57.0996 147.969 56.7778 147.969 56.3793V34.8621C147.969 34.4023 148.107 34.0651 148.383 33.8506C148.659 33.636 149.057 33.5287 149.578 33.5287C150.59 33.5287 151.003 34.5249 150.82 36.5172ZM151.923 37.3908C151.494 38.0038 151.203 38.7395 151.049 39.5977C150.896 40.4559 150.82 41.3602 150.82 42.3103C150.82 43.2299 150.927 44.1034 151.141 44.931C151.356 45.728 151.678 46.4636 152.107 47.1379C153.088 48.5479 154.498 49.2375 156.337 49.2069C158.115 49.2069 159.463 48.4713 160.383 47C161.088 45.8046 161.44 44.2261 161.44 42.2644C161.44 39.1686 160.567 37.0843 158.82 36.0115C158.176 35.613 157.333 35.4138 156.291 35.4138C155.279 35.3831 154.406 35.5517 153.67 35.9195C152.965 36.2874 152.383 36.7778 151.923 37.3908ZM184.189 41.7586C184.189 42.4023 183.822 42.7548 183.086 42.8161H170.488C170.611 45.9425 171.837 47.9655 174.166 48.8851C174.81 49.0996 175.546 49.2069 176.373 49.2069C178.09 49.2069 179.837 48.5785 181.615 47.3218C182.166 47.0153 182.626 47.046 182.994 47.4138C183.178 47.5977 183.239 47.7816 183.178 47.9655C183.178 48.3946 183.071 48.7011 182.856 48.8851C181.17 50.5709 178.948 51.3985 176.189 51.3678C173.676 51.3678 171.653 50.5556 170.121 48.931C168.404 47.2452 167.546 45.023 167.546 42.2644C167.546 39.7203 168.251 37.6207 169.661 35.9655C171.132 34.1264 173.216 33.2069 175.914 33.2069C178.611 33.2069 180.665 34.0192 182.075 35.6437C183.423 37.1149 184.128 39.1533 184.189 41.7586ZM181.477 40.931C181.385 39.2759 180.848 37.9119 179.868 36.8391C178.948 35.8582 177.63 35.3678 175.914 35.3678C174.442 35.3678 173.186 35.9195 172.143 37.023C171.193 38.1264 170.672 39.4291 170.58 40.931H181.477ZM191.252 36.4713C191.987 34.295 193.596 33.2069 196.079 33.2069C196.539 33.2069 196.876 33.3448 197.091 33.6207C197.336 33.8659 197.459 34.1418 197.459 34.4483C197.459 34.7241 197.336 35 197.091 35.2759C196.876 35.5211 196.462 35.6437 195.849 35.6437C195.236 35.6437 194.623 35.7663 194.01 36.0115C193.397 36.2567 192.891 36.6092 192.493 37.069C191.665 38.0805 191.252 39.4138 191.252 41.069V49.7126C191.252 50.1418 191.098 50.4636 190.792 50.6782C190.485 50.8927 190.209 51 189.964 51C189.719 51 189.52 50.9847 189.367 50.954C189.213 50.8927 189.06 50.7854 188.907 50.6322C188.631 50.4483 188.493 50.1418 188.493 49.7126V34.908C188.493 34.5096 188.631 34.1877 188.907 33.9425C189.183 33.6667 189.52 33.5287 189.918 33.5287C190.347 33.5287 190.669 33.6667 190.884 33.9425C191.129 34.1877 191.252 34.5096 191.252 34.908V36.4713Z" fill="#4252CC"/>
<path d="M57.616 75.2C59.6131 75.2 61.232 58.3659 61.232 37.6C61.232 16.8341 59.6131 0 57.616 0C55.6189 0 54 16.8341 54 37.6C54 58.3659 55.6189 75.2 57.616 75.2Z" fill="#4252CC"/>
<path d="M1.264 50.944C1.96208 50.944 2.528 45.0771 2.528 37.84C2.528 30.6029 1.96208 24.736 1.264 24.736C0.565904 24.736 0 30.6029 0 37.84C0 45.0771 0.565904 50.944 1.264 50.944Z" fill="#4252CC"/>
<path d="M4.624 52.4C5.40162 52.4 6.032 45.8813 6.032 37.84C6.032 29.7987 5.40162 23.28 4.624 23.28C3.84639 23.28 3.216 29.7987 3.216 37.84C3.216 45.8813 3.84639 52.4 4.624 52.4Z" fill="#4252CC"/>
<path d="M8.36801 54.032C9.22513 54.032 9.92001 46.7826 9.92001 37.84C9.92001 28.8974 9.22513 21.648 8.36801 21.648C7.51089 21.648 6.81601 28.8974 6.81601 37.84C6.81601 46.7826 7.51089 54.032 8.36801 54.032Z" fill="#4252CC"/>
<path d="M12.512 55.824C13.4664 55.824 14.24 47.7723 14.24 37.84C14.24 27.9077 13.4664 19.856 12.512 19.856C11.5576 19.856 10.784 27.9077 10.784 37.84C10.784 47.7723 11.5576 55.824 12.512 55.824Z" fill="#4252CC"/>
<path d="M17.12 57.824C18.1803 57.824 19.04 48.8768 19.04 37.84C19.04 26.8032 18.1803 17.856 17.12 17.856C16.0597 17.856 15.2 26.8032 15.2 37.84C15.2 48.8768 16.0597 57.824 17.12 57.824Z" fill="#4252CC"/>
<path d="M22.256 60.048C23.4312 60.048 24.384 50.1051 24.384 37.84C24.384 25.5749 23.4312 15.632 22.256 15.632C21.0808 15.632 20.128 25.5749 20.128 37.84C20.128 50.1051 21.0808 60.048 22.256 60.048Z" fill="#4252CC"/>
<path d="M27.952 62.512C29.2598 62.512 30.32 51.4659 30.32 37.84C30.32 24.2141 29.2598 13.168 27.952 13.168C26.6442 13.168 25.584 24.2141 25.584 37.84C25.584 51.4659 26.6442 62.512 27.952 62.512Z" fill="#4252CC"/>
<path d="M34.272 65.248C35.7301 65.248 36.912 52.977 36.912 37.84C36.912 22.703 35.7301 10.432 34.272 10.432C32.8139 10.432 31.632 22.703 31.632 37.84C31.632 52.977 32.8139 65.248 34.272 65.248Z" fill="#4252CC"/>
<path d="M41.296 68.304C42.9131 68.304 44.224 54.6648 44.224 37.84C44.224 21.0152 42.9131 7.37601 41.296 7.37601C39.6789 7.37601 38.368 21.0152 38.368 37.84C38.368 54.6648 39.6789 68.304 41.296 68.304Z" fill="#4252CC"/>
<path d="M49.104 71.68C50.8978 71.68 52.352 56.5293 52.352 37.84C52.352 19.1507 50.8978 4 49.104 4C47.3102 4 45.856 19.1507 45.856 37.84C45.856 56.5293 47.3102 71.68 49.104 71.68Z" fill="#4252CC"/>
</svg>
